<svg xmlns="http://www.w3.org/2000/svg" data-name="Layer 1" width="657.75887" height="261.49464" viewBox="0 0 657.75887 261.49464" xmlns:xlink="http://www.w3.org/1999/xlink"><path d="M452.66468,507.31587c-5.57812-16.34717,3.05225-33.80616,11.42579-48.91358q27.3933-49.42089,54.78686-98.84179l-7.51587-5.66309c-24.13623-6.84033-48.56177-13.72754-73.63379-14.58838-25.07177-.86084-51.25268,4.89893-70.58227,20.89014-17.76953,14.70117-28.03491,36.33935-37.75366,57.2539-9.30127,20.01563-18.83375,41.42969-15.88526,63.30274,4.3064,31.94873,35.05151,55.10693,66.70776,61.20117s64.18653-1.13965,95.60889-8.34326C466.28773,526.54536,456.49769,518.54975,452.66468,507.31587Z" transform="translate(-271.12056 -319.25268)" fill="#ffc500"/><path d="M901.93139,347.11612c-13.6548-3.72319-27.93264-3.941-41.99372-4.225-18.01784-.14185-36.02873.40556-54.03962.822-37.043,1.12684-74.16711.49119-111.03738-3.46861-51.66742-6.14567-116.6668-19.368-175.55167-20.95209-32.23657-.71838-60.077,8.56366-91.67029,6.36331-2.96337-.15345-5.92268-.38441-8.87562-.65869,4.99246,1.28318,10.02955,2.39843,15.10606,3.29474,25.42191,5.02825,51.33937.805,77.00065,2.7127,25.532,1.9168,41.15739,4.84236,66.31387,8.272,25.74126,3.44181,50.48392,6.87188,80.29438,11.302a712.58971,712.58971,0,0,0,106.42918,8.88011c36.43385.23473,72.85264-2.391,109.283-1.14379,21.90969,1.22986,36.51209,3.7955,39.72178,17.07372,1.93115,4.0079,1.136,13.66943.17967,22.98639-.96209,12.57273-4.11267,27.53694-7.18384,44.5043q-4.68152,24.89943-10.30543,49.60572c-3.27808,13.63987-5.34079,27.69023-10.48915,40.79544-2.97554,7.47189-7.20471,12.76226-10.85082,12.36756-9.61921-.22052-19.17931-1.91259-28.81185-2.21876-11.14871-.49959-22.309.26386-33.44788.71955-38.07811,2.40408-76.13245-.987-114.15318-2.78863-30.73547-.5903-61.475.99759-92.16,2.60809-29.84119.72085-58.60088,8.75623-87.76106,14.16642-23.64436,3.88431-61.45412,5.91152-91.84126,6.953-38.92719.69679-120.59922,4.9277-136.66158-11.843-.1901-.20024-.36165-.41628-.5419-.6255a15.4537,15.4537,0,0,1-1.2542-2.0701c-.09447-.17721-.16866-.36383-.25617-.54437-.07941-.2185-.17562-.43091-.244-.65347a14.92666,14.92666,0,0,1-.90645-3.7513c-1.10873-11.13538-.31008-22.3506.25037-33.49758,1.6999-31.8058,4.79193-54.34766,14.00718-85.64575,7.07546-23.50685,12.04764-37.67515,24.92407-58.08157,13.17259-22.53448,40.36511-32.35451,67.75353-33.48744,16.84594-.82966,33.74694-1.61542,50.58129-.18763-13.2265-3.18144-26.72191-4.74528-40.24456-6.02513-31.09075-3.99733-67.2267,1.27116-86.81925,28.28691-14.71368,18.88793-23.5099,41.50543-30.02954,64.35012a345.04287,345.04287,0,0,0-13.71971,75.67372c-.84155,12.59866-1.82045,25.21269-1.79379,37.84584-.16228,11.45139,1.21885,24.53676,11.3336,31.688,24.35086,19.9868,125.15758,13.33154,159.93269,12.51868,26.60541-1.11786,53.22763-2.6617,79.56064-6.79625,23.01726-3.97559,45.12748-10.33788,63.38005-12.06473,35.09214-2.93323,70.35409-4.22844,105.56677-4.33088,29.94377.68825,59.79422,3.86215,89.76929,3.7119,21.69756.41859,43.34587-2.22065,65.03474-1.66121,15.22313-.34152,35.16632,7.7992,45.21268-6.678,9.36246-12.021,11.9294-27.71472,15.44627-42.18164,3.68668-16.33881,7.57331-32.63488,10.81661-49.06961,3.71566-18.75709,7.64924-37.49071,10.02318-56.47746C931.25617,379.231,929.75449,354.67219,901.93139,347.11612Z" transform="translate(-271.12056 -319.25268)"/><path d="M441.59663,405.292c-5.38542-10.46916-17.88281-16.44154-29.43954-14.50967a61.93613,61.93613,0,0,0-13.82751,3.22389c.82821-.3776,1.65121-.75041,2.4603-1.11684-9.20772,2.4687-19.08079,4.48736-26.13422,11.40039-9.56184,8.20592-11.66569,23.36037-5.52857,34.19814,15.612,24.68962,51.89,15.04636,68.24211-3.95546C443.71323,426.61417,445.85882,414.64666,441.59663,405.292ZM431.483,424.5603c-3.46818,5.601-10.86414,9.91581-18.66754,13.7368-.54075.22546-4.8296,1.99085-7.42436,2.70112-15.94644,5.03115-35.56913-3.08639-32.15137-23.88648,2.23426-10.34963,10.95223-16.207,19.98376-20.68867.68622-.16895,1.37475-.32775,2.07082-.45106,8.90982-1.53254,18.7313-2.32482,27.27946,1.13177C435.412,404.01652,437.00233,413.78773,431.483,424.5603Z" transform="translate(-271.12056 -319.25268)"/><path d="M425.53891,472.47844c-17.50956-28.331-44.461-10.74751-59.30274,9.96145-6.89637,9.16555-10.56392,20.15213-13.93763,30.98483,6.12611-10.99687,11.50747-20.59319,19.79771-28.73173,6.85522-6.557,13.65828-12.43841,22.47478-16.17928,6.03454-2.692,12.62605-3.07291,18.4902,1.82609,4.66094,3.20737,8.51106,9.33827,10.87979,15.37686,4.02921,8.22,5.58073,20.38643,6.49066,31.1561.19822,6.23826.95051-3.43051,1.25247-5.64043C433.29363,498.04931,431.86555,484.32018,425.53891,472.47844Z" transform="translate(-271.12056 -319.25268)"/><path d="M696.27773,422.89865c-48.98456-10.91485-100.55344-10.57435-148.62865-18.92531,28.76955,11.22218,59.2274,17.49289,89.7745,21.50645,29.31319,2.84978,58.76953,3.89924,88.154,5.76663,1.369.09448,2.73733.20981,4.104.31848C718.723,428.04427,707.51512,425.36127,696.27773,422.89865Z" transform="translate(-271.12056 -319.25268)"/><path d="M725.40487,471.715c-26.94388-8.21476-54.909-12.514-82.5356-17.78065-22.15717-3.738-44.56935-6.5492-67.065-6.69439-13.14825.40672-26.191,2.28918-39.239,3.83911,11.71728.9024,30.09909,1.89985,38.4473,2.90382,21.79551,3.21548,43.19749,8.671,64.98953,11.91926a496.40763,496.40763,0,0,0,67.72108,5.5887c6.71612.26718,13.43166.56972,20.13966.99745C727.04391,472.23183,726.225,471.9716,725.40487,471.715Z" transform="translate(-271.12056 -319.25268)"/><path d="M703.81685,507.66084c-28.04856-7.152-61.88881-12.25483-81.14057-14.62312-20.00288-2.22731-40.32164-3.12812-60.33728-.61059-13.99733,1.75163-27.4881,6.08033-41.01424,9.91408,14.74382-1.15785,29.47257-3.19781,44.29116-2.73574,14.77512.48626,30.153,2.452,40.648,3.75347a753.93254,753.93254,0,0,0,91.12085,6.59774c5.38252.11375,10.76677.22662,16.14523.44106Q708.69368,508.9583,703.81685,507.66084Z" transform="translate(-271.12056 -319.25268)"/></svg>